<svg width="291" height="92" viewBox="0 0 291 92" fill="none" xmlns="http://www.w3.org/2000/svg">
<path d="M20.998 0.978516H70.6562L73.7324 1.41797L76.8086 2.44336L79.8848 4.05469L81.6426 5.22656L83.5469 6.83789L84.7188 7.86328L86.4766 9.91406L88.0879 12.4043L89.5527 15.4805L90.4316 18.1172L90.8711 20.4609L91.0176 21.7793L91.1641 35.4023V53.7129L91.0176 70.4121L90.7246 73.0488L89.9922 75.832L89.1133 78.0293L87.6484 80.8125L85.8906 83.3027L84.2793 85.0605L83.2539 86.0859L81.0566 87.6973L78.2734 89.3086L75.1973 90.4805L72.2676 91.2129L70.0703 91.5059L67.5801 91.6523H22.3164L19.0938 91.3594L16.1641 90.627L13.8203 89.748L11.3301 88.4297L8.83984 86.6719L6.93555 84.9141L5.76367 83.7422L4.29883 81.8379L3.12695 79.9336L1.51562 76.5645L0.783203 74.2207L0.34375 71.4375L0.197266 68.0684V23.2441L0.34375 20.4609L1.07617 17.0918L2.10156 14.3086L3.41992 11.9648L5.03125 9.62109L6.64258 7.7168L7.66797 6.69141L10.1582 4.78711L12.0625 3.61523L14.4062 2.44336L17.6289 1.41797L19.3867 1.125L20.998 0.978516Z" fill="#015E4F"/>
<path d="M30.5195 15.1875L31.9844 15.334L33.4492 16.0664L34.7676 17.5312L35.3535 17.3848L36.8184 16.0664L37.9902 15.334L38.7227 15.1875H39.748L40.7734 15.627L41.6523 16.6523L41.7988 16.9453L42.9707 17.0918L46.6328 17.2383L51.4668 17.8242L56.1543 18.5566L61.4277 19.7285L68.0195 21.4863L71.6816 22.8047L73.5859 23.8301L75.0508 25.1484L76.2227 26.3203L77.3945 28.2246L78.2734 30.8613L78.7129 32.9121V34.084L77.248 35.1094L77.1016 35.5488L77.9805 35.2559L79.0059 34.9629L79.2988 35.8418L79.4453 36.8672V40.8223L79.0059 45.6562L78.4199 49.3184L77.834 50.9297L76.9551 52.541L75.3438 54.2988L73.7324 55.3242L72.1211 56.0566L70.8027 56.3496H66.4082L62.4531 56.0566H55.8613L52.7852 56.3496L56.4473 56.4961L58.2051 56.6426L58.6445 56.9355V58.1074L58.3516 59.5723L58.2051 61.0371V65.1387L58.3516 69.8262V74.8066L58.0586 76.2715L57.6191 77.0039L57.0332 77.4434L56.4473 77.5898H53.957L53.0781 76.8574L52.1992 75.2461L50.4414 73.3418L49.416 72.1699L49.123 71.584H48.6836L49.8555 73.0488L51.0273 74.9531L52.0527 77.0039V77.4434H42.0918L42.2383 76.7109L43.1172 75.2461L44.582 71.584L43.7031 72.9023L42.0918 75.3926L41.0664 77.0039L40.4805 77.4434H35.0605L34.3281 76.2715L33.1562 74.0742L31.5449 72.1699L29.6406 70.998L27.7363 70.4121L23.7812 69.6797L28.6152 70.998L30.666 72.1699L32.2773 73.7812L33.4492 76.125L33.5957 77.1504L22.4629 77.2969H18.0684L16.6035 77.0039L15.5781 76.2715L14.8457 75.0996L13.8203 72.0234L12.9414 68.3613L12.3555 65.1387L12.209 63.8203V59.8652L12.7949 56.7891L13.8203 54.4453L14.8457 52.6875L16.457 50.9297L18.0684 49.4648L20.2656 48L21.291 47.2676L21.7305 46.0957L23.1953 40.9688L24.6602 35.6953L27.0039 27.1992L28.0293 23.8301L28.1758 23.0977V22.0723L27.4434 19.875L27.2969 19.2891V17.6777L27.8828 16.5059L29.2012 15.627L30.5195 15.1875Z" fill="#D4D192"/>
<path d="M244.973 11.6719H248.635L252.883 11.8184L254.934 12.1113L256.838 12.6973L258.742 13.7227L260.354 15.334L261.525 17.5312L262.111 19.875L262.404 23.0977V28.0781L262.111 30.7148L261.525 32.9121L260.207 35.2559L259.475 36.1348L258.01 37.0137L257.717 37.1602V37.4531L259.328 38.4785L260.646 39.9434L261.818 41.9941L262.404 43.8984L262.551 45.0703L262.697 55.9102L262.844 58.9863L263.137 60.7441L263.43 61.1836V61.623H255.08L254.787 60.7441L254.494 57.9609L254.201 44.9238L253.615 43.3125L252.59 42.1406L251.564 41.7012L249.221 41.4082L246.73 41.2617V61.4766L246.584 61.623H238.82L238.674 40.6758V29.6895L238.82 11.8184L244.973 11.6719ZM246.73 18.7031L246.584 22.0723V32.9121L246.73 34.2305H250.832L252.443 33.791L253.615 32.7656L254.055 32.1797L254.348 30.8613V21.9258L253.762 20.3145L253.176 19.582L251.857 18.9961L248.635 18.7031H246.73Z" fill="#015E4F"/>
<path d="M124.855 11.8184H132.473L132.619 11.9648V33.2051H141.408L141.555 33.0586V16.0664L141.701 11.8184H149.758L149.904 12.1113V61.4766L149.758 61.623H141.701V40.0898H132.619V61.4766L132.473 61.623L127.346 61.7695H125.002L124.855 61.623L124.709 59.1328V15.334L124.855 11.8184Z" fill="#015E4F"/>
<path d="M276.32 11.2324H281.154L283.352 11.6719L285.109 12.4043L286.574 13.4297L287.746 14.4551L289.211 16.3594L290.236 18.7031L290.676 20.9004V51.0762L290.383 53.4199L289.65 55.9102L288.771 57.5215L287.453 59.1328L285.695 60.4512L283.498 61.3301L281.594 61.7695L280.422 61.916H276.76L274.123 61.3301L271.779 60.1582L270.168 58.8398L268.85 57.082L267.824 55.0312L267.238 52.834L266.945 49.9043L266.799 44.1914V31.1543L266.945 23.5371L267.238 20.168L267.824 17.9707L268.996 15.627L270.314 14.0156L272.072 12.6973L273.83 11.8184L275.295 11.3789L276.32 11.2324ZM277.639 17.9707L276.174 18.7031L275.295 19.875L275.002 20.4609L274.855 21.3398L274.709 48.293L274.855 51.6621L275.441 53.4199L276.467 54.5918L277.932 55.0312L279.25 55.1777L280.568 54.8848L281.594 54.2988L282.326 53.4199L282.766 52.248L282.912 50.7832V21.4863L282.326 20.0215L281.447 18.8496L280.422 18.1172L279.982 17.9707H277.639Z" fill="#015E4F"/>
<path d="M177.297 11.5254H182.131L184.328 11.9648L186.086 12.6973L187.697 13.7227L189.455 15.4805L190.773 17.9707L191.506 20.4609L191.652 21.6328V28.8105H184.182L184.035 22.2188L183.596 20.7539L182.717 19.582L181.984 18.9961L181.105 18.7031H179.055L177.736 19.2891L177.004 20.0215L176.418 21.0469L176.271 21.7793L176.125 30.8613V50.4902L176.418 53.127L177.15 54.5918L178.322 55.3242L179.494 55.6172H180.959L182.277 55.1777L183.303 54.4453L183.889 52.9805L184.035 51.5156V41.2617L181.252 41.4082L180.666 41.1152V33.9375H191.652V51.8086L191.359 54.0059L190.627 56.2031L189.602 58.1074L188.43 59.5723L186.525 60.8906L184.768 61.623L181.838 62.209L180.227 62.3555H178.615L176.418 62.0625L174.221 61.3301L172.609 60.4512L171.145 59.1328L169.973 57.8145L168.947 55.7637L168.215 53.2734L167.922 50.9297L167.775 43.3125V35.6953L167.922 22.0723L168.215 20.0215L169.094 17.3848L169.973 15.7734L171.291 14.3086L172.463 13.2832L174.66 12.1113L177.297 11.5254Z" fill="#015E4F"/>
<path d="M219.045 11.6719H219.777V51.8086L219.484 54.0059L218.752 56.2031L217.727 58.1074L216.408 59.5723L215.383 60.4512L213.332 61.4766L210.988 62.0625L208.791 62.3555H206.447L204.396 62.0625L202.639 61.4766L200.881 60.5977L199.416 59.4258L198.391 58.2539L196.926 55.4707L196.34 53.4199L196.047 51.0762V11.9648L196.193 11.8184H204.104L204.25 12.6973V50.1973L204.396 52.248L204.836 53.7129L205.568 54.5918L207.033 55.1777L207.619 55.3242H209.377L210.842 54.5918L211.574 53.8594L211.867 53.4199L212.16 51.2227L212.307 11.9648L212.453 11.8184L219.045 11.6719Z" fill="#015E4F"/>
<path d="M105.373 11.2324H110.5L112.551 11.6719L114.309 12.4043L115.92 13.4297L117.238 14.748L118.41 16.6523L119.289 18.8496L119.729 21.0469L119.875 23.8301V28.5176L115.773 28.6641H112.697L112.258 28.2246V22.2188L111.818 20.6074L111.086 19.4355L110.354 18.8496L109.182 18.4102H107.424L106.105 18.8496L105.08 19.7285L104.494 21.1934L104.348 22.5117V51.8086L104.787 53.5664L105.373 54.4453L106.984 55.1777L107.57 55.3242H109.328L110.646 54.7383L111.379 54.1523L111.818 53.4199L112.111 51.9551L112.258 43.3125L112.844 43.166L119.875 43.3125V48.8789L119.729 51.8086L119.289 54.4453L118.41 56.6426L117.092 58.5469L115.92 59.7188L114.309 60.7441L111.379 61.623L109.182 61.916H105.959L103.615 61.4766L101.711 60.7441L100.246 59.8652L98.7812 58.4004L97.3164 56.2031L96.584 54.2988L96.1445 51.9551L95.998 49.4648V23.6836L96.1445 20.9004L96.584 18.8496L97.4629 16.5059L98.6348 14.748L99.9531 13.4297L101.711 12.2578L104.348 11.3789L105.373 11.2324Z" fill="#015E4F"/>
<path d="M225.051 11.8184H232.961V61.4766L232.814 61.623L225.49 61.7695L225.051 61.4766V11.8184Z" fill="#015E4F"/>
<path d="M155.178 11.8184H162.941V61.623H155.178L155.031 61.4766V11.9648L155.178 11.8184Z" fill="#015E4F"/>
<path d="M142.58 66.3105H145.949L149.758 66.457L151.223 66.75L152.541 67.6289L153.566 68.9473L154.006 69.9727L154.152 70.7051V85.793L153.713 87.6973L152.688 89.0156L151.955 89.6016L150.93 90.041L148.586 90.334L143.166 90.4805L142.58 90.1875V66.3105ZM147.121 69.9727L146.682 70.1191V86.9648H149.465L150.344 86.6719L150.637 85.9395V70.7051L150.344 70.2656L149.758 70.1191L147.121 69.9727Z" fill="#015E4F"/>
<path d="M216.848 66.1641H220.07L221.535 66.75L222.268 67.3359L223.146 68.5078L223.732 69.6797L223.879 70.5586V83.3027L223.732 86.3789L223.293 87.8438L222.268 89.1621L221.242 89.8945L219.631 90.334H216.848L215.383 89.8945L214.211 89.0156L213.332 87.8438L212.746 86.3789L212.6 85.5V71.291L213.039 69.2402L213.918 67.7754L214.943 66.8965L216.262 66.3105L216.848 66.1641ZM218.02 69.0938L216.994 69.3867L216.555 70.1191L216.408 70.7051L216.262 74.8066V84.4746L216.555 86.3789L216.994 87.1113L217.727 87.4043H218.752L219.631 86.9648L219.924 86.6719L220.07 86.0859V70.4121L219.777 69.6797L219.191 69.2402L218.02 69.0938Z" fill="#015E4F"/>
<path d="M115.188 66.3105H119.143L119.436 67.1895L120.9 77.1504L122.805 88.8691V90.334L122.658 90.4805H121.193L119.289 90.334L118.996 89.3086L118.557 86.2324L118.264 86.0859L113.869 85.9395L113.43 89.4551L113.137 90.334L112.99 90.4805L110.061 90.334L109.914 90.1875V89.1621L111.086 81.8379L112.551 72.1699L113.283 67.6289L113.43 66.6035L113.576 66.457L115.188 66.3105ZM116.066 71.584L115.773 72.1699L114.309 81.5449L114.162 82.8633L114.455 83.0098H117.971L117.824 81.3984L116.799 74.9531L116.359 72.0234L116.066 71.584Z" fill="#015E4F"/>
<path d="M188.137 66.1641L188.869 66.3105L189.309 68.2148L190.627 77.2969L192.238 87.5508L192.531 89.1621V90.334H189.016L188.576 88.4297L188.137 86.0859H183.596L183.01 90.334H179.641V89.1621L181.838 74.9531L182.717 69.2402L183.156 66.6035L183.303 66.3105L188.137 66.1641ZM185.354 71.4375L184.768 76.5645L183.889 82.1309V83.0098H187.697L187.404 80.666L186.379 74.6602L185.646 71.584L185.354 71.4375Z" fill="#015E4F"/>
<path d="M160.598 66.3105H165.139L165.432 67.1895L166.311 73.6348L168.215 86.0859L168.654 88.8691V90.334H165.285L164.992 89.8945L164.553 86.2324L164.406 86.0859H159.865L159.279 90.041L158.84 90.4805H157.375L156.057 90.334L155.91 89.6016L156.936 82.4238L159.133 68.2148L159.279 66.457L160.598 66.3105ZM162.355 71.7305L161.916 73.0488L160.451 81.9844V83.0098H164.113L163.967 80.666L163.088 74.9531L162.648 71.877L162.355 71.7305Z" fill="#015E4F"/>
<path d="M203.664 66.1641H207.033L208.205 66.6035L209.523 67.7754L210.402 69.2402L210.695 70.2656L210.842 72.1699V74.0742L210.549 74.2207H207.473L207.18 73.7812V70.8516L206.887 69.8262L206.447 69.3867H204.689L203.957 69.8262L203.811 70.2656L203.664 74.9531V85.207L203.957 86.6719L205.129 86.9648L206.594 86.8184L207.033 86.3789L207.18 85.6465L207.326 81.3984L207.619 81.252L210.695 81.3984L210.842 81.5449L210.695 86.0859L210.256 87.6973L209.23 89.0156L208.352 89.748L207.033 90.1875L206.301 90.334H203.957L202.639 90.041L201.32 89.3086L200.295 88.1367L199.709 86.6719L199.416 84.9141V71.877L199.709 69.6797L200.588 67.9219L201.76 66.8965L203.078 66.3105L203.664 66.1641Z" fill="#015E4F"/>
<path d="M266.506 66.1641H269.729L271.34 66.75L272.512 67.9219L273.244 69.3867L273.537 70.7051V74.0742L270.461 74.2207L270.021 73.9277L269.875 70.2656L269.582 69.5332L269.289 69.3867H267.238L266.799 69.8262L266.506 71.4375V85.793L266.799 86.6719L267.531 86.8184H268.85L269.729 86.5254L269.875 86.0859L270.021 81.3984H273.537V85.9395L273.098 87.4043L272.219 88.8691L271.193 89.748L269.875 90.1875L268.996 90.334H266.652L265.041 89.8945L263.869 89.0156L262.99 87.9902L262.404 86.2324L262.258 85.0605V73.1953L262.404 70.2656L262.844 68.8008L263.869 67.4824L264.895 66.6035L266.506 66.1641Z" fill="#015E4F"/>
<path d="M101.418 65.8711H102.736L104.934 66.3105L106.398 66.8965L107.277 67.6289L108.01 68.9473L108.596 70.5586L108.742 72.1699L108.303 72.4629L107.57 72.6094H105.227L105.08 72.4629L104.787 70.1191L104.055 69.3867L103.615 69.2402H102.59L102.004 69.8262L101.564 71.1445V72.9023L102.15 74.2207L103.176 75.5391L106.398 78.7617L107.424 80.2266L108.303 81.9844L108.742 83.7422L108.596 85.6465L107.863 87.5508L106.691 89.1621L105.52 89.8945L104.055 90.334H101.564L100.1 89.8945L98.9277 89.0156L98.0488 87.8438L97.4629 86.2324L97.3164 85.5V83.1562L97.4629 83.0098H100.539L100.686 83.1562L100.832 85.5L101.418 86.3789L102.004 86.6719L103.469 86.5254L104.055 85.9395L104.348 84.6211L104.201 83.1562L103.469 81.3984L102.297 80.0801L101.418 79.3477V79.0547L100.832 78.7617L99.2207 77.0039L98.0488 75.0996L97.4629 73.6348L97.3164 72.9023V70.7051L97.7559 69.2402L98.7812 67.6289L99.8066 66.6035L100.832 66.0176L101.418 65.8711Z" fill="#015E4F"/>
<path d="M128.078 65.8711H129.982L132.473 66.457L133.791 67.3359L134.67 68.3613L135.256 69.8262L135.549 70.998V72.3164L134.523 72.6094H132.18L132.033 72.4629L131.74 70.2656L131.594 69.6797L130.861 69.3867L130.422 69.2402H129.396L128.811 69.8262L128.371 71.291V72.7559L128.811 74.0742L129.982 75.5391L131.887 77.2969L133.205 78.6152L134.23 80.0801L135.109 81.8379L135.549 83.5957V85.0605L135.109 86.8184L134.084 88.4297L132.912 89.6016L131.447 90.1875L130.715 90.334H128.518L126.906 89.8945L126.027 89.3086L125.002 88.1367L124.416 86.6719L124.27 86.0859L124.123 83.4492L124.562 83.0098H127.199L127.639 83.4492V85.0605L128.078 86.0859L128.518 86.5254L129.836 86.6719L130.715 86.2324L131.154 85.3535V83.3027L130.715 81.9844L129.543 80.5195L126.027 77.0039L124.709 74.6602L124.27 73.1953L124.123 70.998L124.416 69.6797L125.002 68.5078L126.32 67.043L127.346 66.1641L128.078 65.8711Z" fill="#015E4F"/>
<path d="M249.953 66.3105H259.914L260.061 66.457V69.3867L259.914 69.8262H253.615V76.2715H258.742L258.889 76.418L258.742 79.7871H253.469L253.615 86.8184L259.914 86.9648L260.061 87.1113V90.334H249.953L249.807 90.041V66.457L249.953 66.3105Z" fill="#015E4F"/>
<path d="M274.562 66.3105H286.281V69.5332L286.135 69.6797L282.473 69.8262L282.326 90.1875L281.594 90.4805L278.664 90.334L278.518 89.8945V69.6797L277.639 69.8262H274.562L274.416 69.5332V66.457L274.562 66.3105Z" fill="#015E4F"/>
<path d="M168.068 66.3105H179.787L179.934 67.043L179.787 69.6797L175.686 69.8262V90.1875L175.539 90.334H172.17L172.023 90.041L171.877 87.8438V69.6797L170.705 69.8262H168.068L167.922 69.6797V66.457L168.068 66.3105Z" fill="#015E4F"/>
<path d="M226.809 66.3105H230.178L230.471 66.457V86.9648H236.623L236.77 87.1113V90.1875L236.623 90.334L227.395 90.4805L226.662 90.1875V66.457L226.809 66.3105Z" fill="#015E4F"/>
<path d="M238.234 66.3105H241.311L241.896 66.457V86.9648H248.195V90.334L238.527 90.4805L238.234 90.1875L238.088 87.9902V71.1445L238.234 66.3105Z" fill="#015E4F"/>
<path d="M199.562 2.00391H203.078L206.154 2.15039L206.301 2.29688V8.5957L206.154 8.74219L203.078 8.88867H199.416V2.15039L199.562 2.00391Z" fill="#015E4F"/>
<path d="M210.256 2.00391H216.848L216.994 2.15039V8.74219L213.039 8.88867H211.135L210.109 8.74219V2.15039L210.256 2.00391Z" fill="#015E4F"/>
<path d="M66.8477 31.0078H68.752L70.9492 31.5938L72.707 32.4727L73.4395 33.2051L74.3184 33.9375L75.1973 34.8164V35.5488L74.4648 35.4023L72.4141 34.2305L70.6562 33.498L68.166 32.3262L66.5547 31.3008L66.8477 31.0078Z" fill="#015E4F"/>
<path d="M43.9961 24.709L45.3145 25.002L47.0723 25.8809L47.9512 26.6133L47.5117 26.9062H43.1172L41.7988 27.1992L41.2129 27.4922H40.334L40.9199 26.4668L41.6523 25.7344L42.3848 25.1484L43.1172 24.8555L43.9961 24.709Z" fill="#015E4F"/>
</svg>
