<svg width="1500" height="500" viewBox="0 0 1500 500" fill="none" xmlns="http://www.w3.org/2000/svg">
<path d="M350 23H126.563C62.7046 23 10.9375 74.7671 10.9375 138.625V362.062C10.9375 425.92 62.7046 477.688 126.563 477.688H350C413.858 477.688 465.625 425.92 465.625 362.062V138.625C465.625 74.7671 413.858 23 350 23Z" fill="#006FD1"/>
<path d="M241.516 123.352H250.328L255.429 125.207L260.531 128.455L264.241 132.63L266.56 137.269L267.488 140.052H273.053L280.938 139.125L298.562 138.197H309.229L329.635 139.125L342.158 140.516L349.115 141.908L355.144 143.764L362.564 147.475L368.13 151.186L372.768 155.362L377.406 160.465L382.971 169.279L387.145 176.702L391.319 185.98L395.493 197.114L399.204 209.176L401.986 221.701L403.842 232.371L405.697 249.536L406.161 258.815V282.01L404.769 303.814L403.378 310.309L401.059 315.876L397.812 320.979L393.638 326.082L389.464 330.721L382.971 336.288L373.232 342.319L364.42 346.958L343.549 355.773L336.592 359.484L333.81 361.804L331.491 365.051L330.099 367.834L327.317 368.298H318.968L314.33 366.907L309.229 364.123L304.591 359.948L300.881 356.237L295.779 352.989L291.141 351.134L286.503 350.206L280.474 350.67L274.908 352.525L269.807 355.773L265.169 360.412L261.459 365.051L257.285 369.69L251.255 373.865L246.154 375.721L241.516 376.649L235.95 376.185L229.921 374.329L225.283 371.546L220.645 367.371L215.08 361.804L210.442 359.02L206.732 357.628L203.949 357.164H198.383L192.354 359.02L187.252 362.268L182.615 366.907L177.513 371.082L172.875 373.401L167.773 374.793H163.599L158.034 373.401L153.396 371.082L147.83 365.979L142.265 361.804L137.627 359.484L133.917 358.556H127.888L122.322 360.412L117.22 363.659L108.408 372.474L100.988 376.185L95.8861 377.113L89.3931 376.649L83.8276 374.793L79.1898 372.01L72.2329 365.051L69.4502 363.195V359.948L73.6243 341.391L76.8708 328.402L81.9725 312.165L86.6104 299.175L90.3207 289.897L95.8861 276.907L100.06 269.021L103.771 261.598L108.408 252.784L115.829 240.722L122.322 230.98L128.815 222.165L132.062 217.99L133.453 216.134V214.743L128.351 211.031L123.713 206.392L120.467 200.825L118.148 192.939V185.516L120.467 178.093L123.713 172.99L127.888 168.351L131.598 165.104L137.163 162.32L142.265 160.929H150.613L156.179 162.32L161.744 165.104L167.773 169.743L172.411 173.918L174.73 175.774L177.513 175.31L185.397 170.207L194.209 165.104L204.876 159.537L215.08 154.898L224.819 151.186L224.356 148.867V140.516L226.211 135.413L228.993 130.774L233.168 127.063L239.661 123.815L241.516 123.352Z" fill="#F0D8B8"/>
<path d="M366.739 159.537H367.666L367.202 161.392L363.492 166.032L360.709 172.062L357.927 179.949V183.196L362.564 190.155L367.202 198.042L370.913 205.464L374.623 214.743L379.261 228.66L382.044 240.722L383.899 251.392L384.826 258.351L385.29 269.484L385.754 272.732L387.609 273.66L394.566 280.155L396.421 282.01V284.33L394.566 284.794L389.464 281.546L384.826 277.835L382.507 276.443L380.652 277.371L369.057 286.649L367.666 287.577L365.347 287.113L365.811 284.794L372.768 277.835L376.478 274.588L378.797 271.804V267.165L376.942 252.784L374.159 239.33L370.913 227.732L367.666 218.454L363.492 207.32L358.39 196.186L353.752 188.763L351.434 185.98L343.085 183.196L332.882 180.877L323.606 179.485L311.084 178.093L309.229 177.165L310.62 176.238L320.823 175.31L329.172 174.846H338.447L348.651 176.702L350.97 177.629L351.897 174.846L355.608 168.351L359.782 163.712L365.811 160.001L366.739 159.537Z" fill="#006FD1"/>
<path d="M222.037 174.382L227.139 175.31L230.849 177.166L231.776 178.557V180.877L230.385 181.805L219.254 183.197L215.544 185.052L210.442 190.619L208.587 191.083L206.268 189.691V186.908L208.587 182.269L212.297 178.094L215.08 176.238L218.79 174.846L222.037 174.382Z" fill="#006FD1"/>
<path d="M609.375 233.937V266.75C609.375 307.375 589.063 329.25 550 329.25C510.938 329.25 490.625 305.813 490.625 266.75V137.062C490.625 96.4375 510.938 74.5625 550 74.5625C589.063 74.5625 609.375 98 609.375 137.062V162.063H571.875V135.5C571.875 118.313 564.062 110.5 551.562 110.5C539.062 110.5 531.25 116.75 531.25 135.5V271.437C531.25 288.625 539.062 296.437 551.562 296.437C564.062 296.437 571.875 290.187 571.875 271.437V235.5H609.375V233.937Z" fill="#006FD1"/>
<path d="M673.438 327.688H634.375V77.6875H673.438V185.5H718.75V77.6875H759.375V327.688H718.75V219.875H673.438V327.688Z" fill="#006FD1"/>
<path d="M785.938 77.6875H825V327.688H785.938V77.6875Z" fill="#006FD1"/>
<path d="M914.062 188.625H968.75V268.313C968.75 308.938 948.437 330.812 909.375 330.812C870.312 330.812 850 307.375 850 268.313V138.625C850 98 870.312 76.125 909.375 76.125C948.437 76.125 968.75 99.5625 968.75 138.625V163.625H931.25V137.062C931.25 119.875 923.437 112.062 910.937 112.062C898.437 112.062 890.625 118.312 890.625 137.062V273C890.625 290.187 898.437 298 910.937 298C923.437 298 931.25 291.75 931.25 273V226.125H914.062V190.188V188.625Z" fill="#006FD1"/>
<path d="M1031.25 77.6875V271.437C1031.25 288.625 1039.06 296.438 1051.56 296.438C1064.06 296.438 1071.87 290.188 1071.87 271.437V77.6875H1109.37V268.313C1109.37 308.938 1089.06 330.813 1050 330.813C1010.94 330.813 990.625 307.375 990.625 268.313V77.6875H1029.69H1031.25ZM1042.19 29.25V63.625H1007.81V29.25H1042.19ZM1095.31 29.25V63.625H1060.94V29.25H1095.31Z" fill="#006FD1"/>
<path d="M1135.94 77.6875H1175V327.688H1135.94V77.6875Z" fill="#006FD1"/>
<path d="M1285.94 327.688C1284.38 321.437 1282.81 316.75 1282.81 296.438V257.375C1282.81 233.938 1275 226.125 1257.81 226.125H1243.75V327.688H1204.69V77.6875H1264.06C1304.69 77.6875 1321.87 96.4375 1321.87 135.5V155.812C1321.87 180.812 1314.06 198 1296.88 205.813C1317.19 215.188 1323.44 233.938 1323.44 258.938V298C1323.44 310.5 1323.44 319.875 1328.13 327.688H1287.5H1285.94ZM1243.75 113.625V190.188H1259.37C1273.44 190.188 1282.81 183.937 1282.81 163.625V138.625C1282.81 121.438 1276.56 113.625 1262.5 113.625H1243.75Z" fill="#006FD1"/>
<path d="M1345.31 137.062C1345.31 96.4375 1367.19 74.5625 1404.69 74.5625C1442.19 74.5625 1464.06 98 1464.06 137.062V266.75C1464.06 307.375 1442.19 329.25 1404.69 329.25C1367.19 329.25 1345.31 305.813 1345.31 266.75V137.062ZM1384.38 269.875C1384.38 287.063 1392.19 294.875 1404.69 294.875C1417.19 294.875 1425 288.625 1425 269.875V133.938C1425 116.75 1417.19 108.938 1404.69 108.938C1392.19 108.938 1384.38 115.188 1384.38 133.938V269.875Z" fill="#006FD1"/>
<path d="M525 349.562C543.75 349.562 553.125 360.5 553.125 379.25V382.375H535.938V377.687C535.938 369.875 532.813 365.187 526.563 365.187C520.313 365.187 517.187 368.312 517.187 377.687C517.187 387.062 520.312 393.312 532.812 404.25C548.437 418.312 553.125 427.688 553.125 441.75C553.125 455.812 543.75 471.437 525 471.437C506.25 471.437 496.875 460.5 496.875 441.75V433.938H514.063V441.75C514.063 451.125 517.188 452.687 523.438 452.687C529.688 452.687 532.812 449.562 532.812 441.75C532.812 433.938 529.687 426.125 517.187 415.187C501.562 401.125 496.875 391.75 496.875 377.687C496.875 363.625 506.25 348 525 348V349.562Z" fill="#006FD1"/>
<path d="M625 471.438H606.25L603.125 449.563H579.687L576.563 471.438H559.375L578.125 351.125H606.25L625 471.438ZM581.25 433.938H600L590.625 373L581.25 433.938Z" fill="#006FD1"/>
<path d="M659.375 349.562C678.125 349.562 687.5 360.5 687.5 379.25V382.375H670.312V377.687C670.312 369.875 667.187 365.187 660.937 365.187C654.687 365.187 651.562 368.312 651.562 377.687C651.562 387.062 654.687 393.312 667.187 404.25C682.812 418.312 687.5 427.688 687.5 441.75C687.5 455.812 678.125 471.437 659.375 471.437C640.625 471.437 631.25 460.5 631.25 441.75V433.938H648.437V441.75C648.437 451.125 651.562 452.687 657.812 452.687C664.062 452.687 667.187 449.562 667.187 441.75C667.187 433.938 664.062 426.125 651.562 415.187C635.937 401.125 631.25 391.75 631.25 377.687C631.25 363.625 640.625 348 659.375 348V349.562Z" fill="#006FD1"/>
<path d="M723.438 351.125H753.125C771.875 351.125 781.25 362.062 781.25 380.812V441.75C781.25 460.5 771.875 471.438 753.125 471.438H723.438V351.125ZM743.75 368.313V454.25H754.687C760.937 454.25 764.063 451.125 764.063 443.312V380.812C764.063 371.437 760.937 369.875 754.687 369.875H743.75V368.313Z" fill="#006FD1"/>
<path d="M854.688 471.438H835.937L832.812 449.563H809.375L806.25 471.438H789.062L807.813 351.125H835.937L854.688 471.438ZM812.5 433.938H831.25L821.875 373L812.5 433.938Z" fill="#006FD1"/>
<path d="M851.562 351.125H909.375V368.313H889.062V471.438H870.312V368.313H850V351.125H851.562Z" fill="#006FD1"/>
<path d="M973.438 471.438H954.687L951.563 449.563H928.125L925 471.438H907.812L926.563 351.125H954.687L973.438 471.438ZM929.688 433.938H948.438L939.062 373L929.688 433.938Z" fill="#006FD1"/>
<path d="M1064.06 426.125V441.75C1064.06 460.5 1054.69 471.438 1035.94 471.438C1017.19 471.438 1007.81 460.5 1007.81 441.75V379.25C1007.81 360.5 1017.19 349.562 1035.94 349.562C1054.69 349.562 1064.06 360.5 1064.06 379.25V390.188H1046.88V377.688C1046.88 369.875 1043.75 365.188 1037.5 365.188C1031.25 365.188 1028.13 368.313 1028.13 377.688V443.312C1028.13 452.688 1031.25 454.25 1037.5 454.25C1043.75 454.25 1046.88 451.125 1046.88 443.312V426.125H1064.06Z" fill="#006FD1"/>
<path d="M1073.44 379.25C1073.44 360.5 1082.81 349.562 1101.56 349.562C1120.31 349.562 1129.69 360.5 1129.69 379.25V441.75C1129.69 460.5 1120.31 471.438 1101.56 471.438C1082.81 471.438 1073.44 460.5 1073.44 441.75V379.25ZM1092.19 443.312C1092.19 452.688 1095.31 455.813 1101.56 455.813C1107.81 455.813 1110.94 452.688 1110.94 443.312V377.688C1110.94 369.875 1107.81 365.188 1101.56 365.188C1095.31 365.188 1092.19 368.313 1092.19 377.688V443.312Z" fill="#006FD1"/>
<path d="M1143.75 351.125H1162.5V454.25H1193.75V471.438H1143.75V351.125Z" fill="#006FD1"/>
<path d="M1201.56 351.125H1220.31V454.25H1251.56V471.438H1201.56V351.125Z" fill="#006FD1"/>
<path d="M1278.13 401.125H1304.69V418.313H1278.13V454.25H1310.94V471.438H1259.38V351.125H1310.94V368.313H1278.13V401.125Z" fill="#006FD1"/>
<path d="M1378.12 426.125V441.75C1378.12 460.5 1368.75 471.438 1350 471.438C1331.25 471.438 1321.88 460.5 1321.88 441.75V379.25C1321.88 360.5 1331.25 349.562 1350 349.562C1368.75 349.562 1378.12 360.5 1378.12 379.25V390.188H1360.94V377.688C1360.94 369.875 1357.81 365.188 1351.56 365.188C1345.31 365.188 1342.19 368.313 1342.19 377.688V443.312C1342.19 452.688 1345.31 454.25 1351.56 454.25C1357.81 454.25 1360.94 451.125 1360.94 443.312V426.125H1378.12Z" fill="#006FD1"/>
<path d="M1384.37 351.125H1442.19V368.313H1421.87V471.438H1403.13V368.313H1382.81V351.125H1384.37Z" fill="#006FD1"/>
</svg>
