<svg width="1500" height="500" viewBox="0 0 1500 500" fill="none" xmlns="http://www.w3.org/2000/svg">
<path d="M350 23H126.563C62.7046 23 10.9375 74.7671 10.9375 138.625V362.062C10.9375 425.92 62.7046 477.688 126.563 477.688H350C413.858 477.688 465.625 425.92 465.625 362.062V138.625C465.625 74.7671 413.858 23 350 23Z" fill="#0041A8"/>
<path fill-rule="evenodd" clip-rule="evenodd" d="M210.938 160.5C212.5 158.938 214.062 157.375 217.187 155.812C220.312 154.25 223.438 152.687 226.562 152.687H242.188C245.312 152.687 246.875 152.688 250 154.25C248.438 151.125 246.875 149.562 243.75 148C242.188 148 240.625 144.875 239.062 144.875C237.5 144.875 235.938 144.875 234.375 143.313H225C223.437 143.313 221.875 144.875 220.312 146.438C217.188 149.563 214.062 152.688 212.5 158.938L210.938 160.5ZM331.25 169.875C335.938 173 342.188 174.562 346.875 177.688L356.25 182.375C359.375 182.375 360.937 185.5 364.062 187.062C364.062 187.062 367.188 187.062 368.75 188.625C368.75 188.625 371.875 188.625 373.438 190.188C376.562 190.188 379.688 193.312 381.25 194.875C384.375 196.437 385.938 198 389.062 201.125C387.5 198 385.938 194.875 384.375 193.312C384.375 191.75 381.25 190.188 379.687 188.625C379.687 188.625 378.125 187.062 376.562 185.5C375 185.5 373.437 182.375 371.875 180.812C370.312 180.812 367.188 179.25 365.625 177.688C362.5 177.688 359.375 176.125 356.25 174.563H348.437C343.75 174.563 337.5 173 331.25 171.437V169.875ZM220.312 104.25C268.75 104.25 315.625 115.188 364.062 130.813C382.812 137.063 396.875 152.687 401.562 171.437C401.562 176.125 403.125 182.375 404.688 187.062C404.688 188.625 401.562 190.188 400 191.75C398.438 194.875 396.875 196.438 395.312 199.562C398.437 198 401.562 194.875 403.125 193.312C403.125 193.312 404.688 193.312 406.25 191.75C409.375 215.188 406.25 238.625 403.125 263.625C398.437 285.5 379.688 301.125 357.812 301.125H342.188C328.125 299.563 317.188 298 306.25 298C287.5 298 275 298 265.625 302.687C275 299.562 287.5 299.562 304.688 302.687C296.875 335.5 304.687 366.75 301.562 398C301.562 402.688 296.875 407.375 292.188 407.375H278.125C276.562 402.688 273.437 398 270.312 394.875C259.375 379.25 250 373 250 373C250 373 259.375 380.812 267.188 398C267.188 401.125 270.312 404.25 271.875 407.375H220.312L235.938 373L212.5 407.375H184.375C181.25 398 176.562 390.188 171.875 383.938C164.062 376.125 154.688 371.438 145.312 369.875C129.687 366.75 115.625 369.875 115.625 369.875C115.625 369.875 150 363.625 168.75 385.5C173.438 390.188 176.562 396.438 178.125 405.812H101.562C92.1875 405.812 84.375 399.562 82.8125 391.75C65.625 337.062 59.375 285.5 117.187 255.812L151.562 132.375L146.875 116.75V104.25C148.437 101.125 153.125 98 156.25 96.4375H160.938C165.625 93.3125 170.312 96.4375 173.438 96.4375C176.562 96.4375 179.688 101.125 181.25 105.812H189.062C189.062 102.687 192.187 101.125 193.75 99.5625C196.875 96.4375 201.562 94.875 206.25 94.875C210.937 94.875 214.062 94.875 217.187 99.5625C217.187 99.5625 218.75 102.687 220.312 104.25Z" fill="#F0D8B8"/>
<path d="M609.375 233.938V266.75C609.375 307.375 589.063 329.25 550 329.25C510.938 329.25 490.625 305.812 490.625 266.75V137.062C490.625 96.4375 510.938 74.5625 550 74.5625C589.063 74.5625 609.375 98 609.375 137.062V162.063H571.875V135.5C571.875 118.313 564.062 110.5 551.562 110.5C539.062 110.5 531.25 116.75 531.25 135.5V271.437C531.25 288.625 539.062 296.438 551.562 296.438C564.062 296.438 571.875 290.187 571.875 271.437V235.5H609.375V233.938Z" fill="#0041A8"/>
<path d="M673.438 327.688H634.375V77.6875H673.438V185.5H718.75V77.6875H759.375V327.688H718.75V219.875H673.438V327.688Z" fill="#0041A8"/>
<path d="M785.938 77.6875H825V327.688H785.938V77.6875Z" fill="#0041A8"/>
<path d="M914.062 188.625H968.75V268.312C968.75 308.938 948.437 330.812 909.375 330.812C870.312 330.812 850 307.375 850 268.312V138.625C850 98 870.312 76.125 909.375 76.125C948.437 76.125 968.75 99.5625 968.75 138.625V163.625H931.25V137.062C931.25 119.875 923.437 112.062 910.937 112.062C898.437 112.062 890.625 118.312 890.625 137.062V273C890.625 290.187 898.437 298 910.937 298C923.437 298 931.25 291.75 931.25 273V226.125H914.062V190.188V188.625Z" fill="#0041A8"/>
<path d="M1031.25 77.6875V271.438C1031.25 288.625 1039.06 296.438 1051.56 296.438C1064.06 296.438 1071.87 290.188 1071.87 271.438V77.6875H1109.37V268.313C1109.37 308.938 1089.06 330.813 1050 330.813C1010.94 330.813 990.625 307.375 990.625 268.313V77.6875H1029.69H1031.25ZM1042.19 29.25V63.625H1007.81V29.25H1042.19ZM1095.31 29.25V63.625H1060.94V29.25H1095.31Z" fill="#0041A8"/>
<path d="M1135.94 77.6875H1175V327.688H1135.94V77.6875Z" fill="#0041A8"/>
<path d="M1285.94 327.688C1284.38 321.438 1282.81 316.75 1282.81 296.438V257.375C1282.81 233.938 1275 226.125 1257.81 226.125H1243.75V327.688H1204.69V77.6875H1264.06C1304.69 77.6875 1321.87 96.4375 1321.87 135.5V155.812C1321.87 180.812 1314.06 198 1296.88 205.813C1317.19 215.188 1323.44 233.938 1323.44 258.938V298C1323.44 310.5 1323.44 319.875 1328.13 327.688H1287.5H1285.94ZM1243.75 113.625V190.188H1259.37C1273.44 190.188 1282.81 183.937 1282.81 163.625V138.625C1282.81 121.438 1276.56 113.625 1262.5 113.625H1243.75Z" fill="#0041A8"/>
<path d="M1345.31 137.062C1345.31 96.4375 1367.19 74.5625 1404.69 74.5625C1442.19 74.5625 1464.06 98 1464.06 137.062V266.75C1464.06 307.375 1442.19 329.25 1404.69 329.25C1367.19 329.25 1345.31 305.812 1345.31 266.75V137.062ZM1384.38 269.875C1384.38 287.063 1392.19 294.875 1404.69 294.875C1417.19 294.875 1425 288.625 1425 269.875V133.938C1425 116.75 1417.19 108.938 1404.69 108.938C1392.19 108.938 1384.38 115.188 1384.38 133.938V269.875Z" fill="#0041A8"/>
<path d="M525 349.562C543.75 349.562 553.125 360.5 553.125 379.25V382.375H535.938V377.687C535.938 369.875 532.813 365.187 526.563 365.187C520.313 365.187 517.187 368.312 517.187 377.687C517.187 387.062 520.312 393.312 532.812 404.25C548.437 418.312 553.125 427.688 553.125 441.75C553.125 455.812 543.75 471.437 525 471.437C506.25 471.437 496.875 460.5 496.875 441.75V433.938H514.063V441.75C514.063 451.125 517.188 452.687 523.438 452.687C529.688 452.687 532.812 449.562 532.812 441.75C532.812 433.938 529.687 426.125 517.187 415.187C501.562 401.125 496.875 391.75 496.875 377.687C496.875 363.625 506.25 348 525 348V349.562Z" fill="#0041A8"/>
<path d="M625 471.438H606.25L603.125 449.563H579.687L576.563 471.438H559.375L578.125 351.125H606.25L625 471.438ZM581.25 433.938H600L590.625 373L581.25 433.938Z" fill="#0041A8"/>
<path d="M659.375 349.562C678.125 349.562 687.5 360.5 687.5 379.25V382.375H670.312V377.687C670.312 369.875 667.187 365.187 660.937 365.187C654.687 365.187 651.562 368.312 651.562 377.687C651.562 387.062 654.687 393.312 667.187 404.25C682.812 418.312 687.5 427.688 687.5 441.75C687.5 455.812 678.125 471.437 659.375 471.437C640.625 471.437 631.25 460.5 631.25 441.75V433.938H648.437V441.75C648.437 451.125 651.562 452.687 657.812 452.687C664.062 452.687 667.187 449.562 667.187 441.75C667.187 433.938 664.062 426.125 651.562 415.187C635.937 401.125 631.25 391.75 631.25 377.687C631.25 363.625 640.625 348 659.375 348V349.562Z" fill="#0041A8"/>
<path d="M723.438 351.125H753.125C771.875 351.125 781.25 362.062 781.25 380.812V441.75C781.25 460.5 771.875 471.438 753.125 471.438H723.438V351.125ZM743.75 368.313V454.25H754.687C760.937 454.25 764.063 451.125 764.063 443.312V380.812C764.063 371.437 760.937 369.875 754.687 369.875H743.75V368.313Z" fill="#0041A8"/>
<path d="M854.688 471.438H835.937L832.812 449.563H809.375L806.25 471.438H789.062L807.813 351.125H835.937L854.688 471.438ZM812.5 433.938H831.25L821.875 373L812.5 433.938Z" fill="#0041A8"/>
<path d="M851.562 351.125H909.375V368.313H889.062V471.438H870.312V368.313H850V351.125H851.562Z" fill="#0041A8"/>
<path d="M973.438 471.438H954.687L951.563 449.563H928.125L925 471.438H907.812L926.563 351.125H954.687L973.438 471.438ZM929.688 433.938H948.438L939.062 373L929.688 433.938Z" fill="#0041A8"/>
<path d="M1064.06 426.125V441.75C1064.06 460.5 1054.69 471.438 1035.94 471.438C1017.19 471.438 1007.81 460.5 1007.81 441.75V379.25C1007.81 360.5 1017.19 349.562 1035.94 349.562C1054.69 349.562 1064.06 360.5 1064.06 379.25V390.188H1046.88V377.688C1046.88 369.875 1043.75 365.188 1037.5 365.188C1031.25 365.188 1028.13 368.313 1028.13 377.688V443.312C1028.13 452.688 1031.25 454.25 1037.5 454.25C1043.75 454.25 1046.88 451.125 1046.88 443.312V426.125H1064.06Z" fill="#0041A8"/>
<path d="M1073.44 379.25C1073.44 360.5 1082.81 349.562 1101.56 349.562C1120.31 349.562 1129.69 360.5 1129.69 379.25V441.75C1129.69 460.5 1120.31 471.438 1101.56 471.438C1082.81 471.438 1073.44 460.5 1073.44 441.75V379.25ZM1092.19 443.312C1092.19 452.688 1095.31 455.813 1101.56 455.813C1107.81 455.813 1110.94 452.688 1110.94 443.312V377.688C1110.94 369.875 1107.81 365.188 1101.56 365.188C1095.31 365.188 1092.19 368.313 1092.19 377.688V443.312Z" fill="#0041A8"/>
<path d="M1143.75 351.125H1162.5V454.25H1193.75V471.438H1143.75V351.125Z" fill="#0041A8"/>
<path d="M1201.56 351.125H1220.31V454.25H1251.56V471.438H1201.56V351.125Z" fill="#0041A8"/>
<path d="M1278.13 401.125H1304.69V418.313H1278.13V454.25H1310.94V471.438H1259.38V351.125H1310.94V368.313H1278.13V401.125Z" fill="#0041A8"/>
<path d="M1378.12 426.125V441.75C1378.12 460.5 1368.75 471.438 1350 471.438C1331.25 471.438 1321.88 460.5 1321.88 441.75V379.25C1321.88 360.5 1331.25 349.562 1350 349.562C1368.75 349.562 1378.12 360.5 1378.12 379.25V390.188H1360.94V377.688C1360.94 369.875 1357.81 365.188 1351.56 365.188C1345.31 365.188 1342.19 368.313 1342.19 377.688V443.312C1342.19 452.688 1345.31 454.25 1351.56 454.25C1357.81 454.25 1360.94 451.125 1360.94 443.312V426.125H1378.12Z" fill="#0041A8"/>
<path d="M1384.37 351.125H1442.19V368.313H1421.87V471.438H1403.13V368.313H1382.81V351.125H1384.37Z" fill="#0041A8"/>
</svg>
